<svg xmlns="http://www.w3.org/2000/svg" width="1310" height="872" viewBox="0 0 1310 872" version="1.1"><path d="M 272.730 596.290 L 264.959 603.500 264.980 613.164 L 265 622.828 273.250 630.398 L 281.500 637.969 292.832 637.984 L 304.163 638 308.582 641.620 C 312.769 645.052, 313 645.511, 313 650.409 C 313 655.299, 312.762 655.776, 308.560 659.288 L 304.119 663 294.240 663 L 284.360 663 280.180 659.422 C 276.324 656.122, 276 655.463, 276 650.922 L 276 646 269.500 646 L 263 646 263.074 653.750 L 263.149 661.500 271.450 668.750 L 279.750 676 294.341 676 L 308.932 676 316.966 668.909 L 325 661.818 325 650.500 L 325 639.182 316.966 632.091 L 308.932 625 297.216 624.989 L 285.500 624.978 281.250 620.914 C 277.710 617.528, 277 616.216, 277 613.052 C 277 609.835, 277.685 608.624, 281.478 605.127 L 285.955 601 295.059 601 C 304.041 601, 304.223 601.049, 308.582 604.620 C 312.582 607.899, 313 608.655, 313 612.620 L 313 617 319 617 L 325 617 324.969 609.750 L 324.938 602.500 317.073 595.750 L 309.208 589 294.854 589.040 L 280.500 589.079 272.730 596.290 M 363 607.304 L 363 625.608 359.494 629.006 L 355.988 632.404 359.494 635.994 L 363 639.584 363 657.792 L 363 676 369 676 L 375 676 375 657.500 L 375 639 389.823 639 L 404.647 639 411.823 630.572 L 419 622.143 419 613.606 L 419 605.068 411.909 597.034 L 404.818 589 383.909 589 L 363 589 363 607.304 M 454 607.304 L 454 625.608 450.494 629.006 L 446.988 632.404 450.494 635.994 L 454 639.584 454 657.792 L 454 676 480 676 L 506 676 506 669.500 L 506 663 486 663 L 466 663 466 651 L 466 639 481.500 639 L 497 639 497 632.500 L 497 626 481.500 626 L 466 626 466 613.500 L 466 601 486 601 L 506 601 506 595 L 506 589 480 589 L 454 589 454 607.304 M 538 607.162 L 538 625.416 534.445 629.056 L 530.890 632.697 534.445 635.818 L 538 638.939 538 657.469 L 538 676 544 676 L 550 676 550 643.786 C 550 616.811, 550.218 611.810, 551.339 613.036 C 552.075 613.841, 560.446 628.337, 569.942 645.250 L 587.206 676 593.103 676 L 599 676 599 657.604 L 599 639.207 602.500 636.134 C 604.425 634.444, 606 632.809, 606 632.500 C 606 632.191, 604.425 630.556, 602.500 628.866 L 599 625.793 599 607.396 L 599 589 593.014 589 L 587.028 589 586.764 620.095 L 586.500 651.190 568.989 620.345 L 551.479 589.500 544.739 589.204 L 538 588.909 538 607.162 M 638 607.304 L 638 625.608 634.494 629.006 L 630.988 632.404 634.494 635.994 L 638 639.584 638 657.792 L 638 676 660.336 676 L 682.672 676 690.836 668.841 L 699 661.682 698.966 632.091 L 698.933 602.500 691.216 595.767 L 683.500 589.035 660.750 589.017 L 638 589 638 607.304 M 717.394 590.585 C 719.329 595.628, 728 624.709, 728 626.157 C 728 627.096, 726.650 628.825, 725 630 C 723.350 631.175, 722 632.462, 722 632.860 C 722 633.258, 724.390 634.755, 727.311 636.188 C 731.971 638.474, 732.777 639.326, 733.894 643.146 C 734.593 645.541, 737.189 653.913, 739.663 661.750 L 744.159 676 751.330 675.997 L 758.500 675.994 765.962 643.889 C 771.024 622.115, 773.679 612.383, 774.213 613.642 C 774.872 615.194, 789 674.395, 789 675.603 C 789 675.821, 792.375 676, 796.500 676 C 801.258 676, 804 675.600, 804 674.907 C 804 674.306, 806.515 665.956, 809.589 656.352 L 815.179 638.891 820.589 636.237 L 825.999 633.584 822.468 629.967 L 818.937 626.351 824.468 608.557 C 827.511 598.770, 830 590.366, 830 589.881 C 830 589.396, 826.923 589, 823.161 589 L 816.323 589 806.430 623.566 C 799.829 646.634, 796.293 657.528, 795.802 656.316 C 795.397 655.317, 792.550 642.800, 789.476 628.500 C 786.402 614.200, 783.197 599.444, 782.354 595.708 L 780.821 588.916 773.660 589.208 L 766.500 589.500 759.042 623.708 C 754.940 642.523, 751.344 657.678, 751.052 657.385 C 750.760 657.093, 746.196 641.699, 740.911 623.177 L 731.302 589.500 724.026 589.204 C 717.561 588.940, 716.822 589.094, 717.394 590.585 M 858 607.531 L 858 626.061 854.445 629.182 L 850.890 632.303 854.445 635.944 L 858 639.584 858 657.792 L 858 676 864 676 L 870 676 870 657.792 L 870 639.584 873.555 635.944 L 877.110 632.303 873.555 629.182 L 870 626.061 870 607.531 L 870 589 864 589 L 858 589 858 607.531 M 915.750 596.113 L 908 603.182 908.037 613.341 L 908.075 623.500 916.287 630.718 L 924.500 637.936 936 638.009 L 947.500 638.082 951.750 641.927 C 955.609 645.418, 956 646.207, 956 650.500 C 956 654.793, 955.609 655.582, 951.750 659.073 L 947.500 662.918 937.228 662.959 L 926.955 663 922.478 658.873 C 918.486 655.193, 918 654.271, 918 650.373 L 918 646 912 646 L 906 646 906.006 653.750 L 906.013 661.500 914.256 668.729 L 922.500 675.958 937.086 675.979 L 951.672 676 959.836 668.841 L 968 661.682 968 650.500 L 968 639.318 959.836 632.159 L 951.672 625 940.254 625 L 928.837 625 924.418 621.380 C 920.387 618.076, 920 617.366, 920 613.265 C 920 609.249, 920.451 608.364, 924.250 604.927 L 928.500 601.082 938 601.082 L 947.500 601.082 951.750 604.927 C 955.438 608.264, 956 609.315, 956 612.886 L 956 617 962 617 L 968 617 968 610.091 L 968 603.182 960.250 596.113 L 952.500 589.045 938 589.045 L 923.500 589.045 915.750 596.113 M 1002 607.881 L 1002 626.763 998.348 629.548 L 994.695 632.334 998.348 635.264 L 1002 638.194 1002 657.097 L 1002 676 1028.500 676 L 1055 676 1055 669.500 L 1055 663 1035 663 L 1015 663 1015 651.026 L 1015 639.052 1030.250 638.776 L 1045.500 638.500 1045.500 632.500 L 1045.500 626.500 1030.250 626.224 L 1015 625.948 1015 613.474 L 1015 601 1035 601 L 1055 601 1055 595 L 1055 589 1028.500 589 L 1002 589 1002 607.881 M 375 613.500 L 375 626 386.922 626 L 398.844 626 402.422 621.820 C 407.372 616.038, 407.360 611.496, 402.380 605.418 L 398.759 601 386.880 601 L 375 601 375 613.500 M 650 632 L 650 663 664.060 663 L 678.119 663 682.560 659.288 L 687 655.576 687 632.373 L 687 609.170 682.359 605.085 L 677.718 601 663.859 601 L 650 601 650 632" stroke="none" fill="#393e46" fill-rule="evenodd"/><path d="M 0.017 5.750 L 0.034 11.500 2.117 8.247 C 3.263 6.458, 6.068 3.875, 8.350 2.506 L 12.500 0.019 6.250 0.009 L 0 0 0.017 5.750 M 17.500 1.470 C 16.950 1.665, 15.271 2.096, 13.768 2.427 C 10.375 3.175, 4.458 8.275, 2.199 12.398 C 0.608 15.303, 0.503 42.148, 0.542 435.500 C 0.581 824.546, 0.706 855.729, 2.241 858.602 C 4.363 862.574, 10.252 867.752, 13.768 868.736 C 15.271 869.156, 306.075 869.500, 660 869.500 C 1274.516 869.500, 1303.646 869.420, 1306.750 867.724 C 1309.296 866.333, 1310 866.244, 1310 867.314 C 1310 868.065, 1308.854 869.201, 1307.453 869.839 C 1305.528 870.716, 1146.982 871, 658.791 871 L 12.676 871 8.452 868.524 C 6.128 867.163, 3.284 864.575, 2.131 862.774 L 0.034 859.500 0.017 865.751 L 0 872.002 655.243 871.751 L 1310.486 871.500 1310.839 451.500 C 1311.033 220.500, 1310.877 25.525, 1310.492 18.222 L 1309.792 4.944 1306.646 3.222 C 1303.680 1.598, 1266.818 1.489, 661 1.307 C 307.625 1.202, 18.050 1.275, 17.500 1.470 M 0.494 336.500 C 0.494 511.400, 0.609 582.801, 0.750 495.169 C 0.891 407.537, 0.891 264.437, 0.750 177.169 C 0.609 89.901, 0.494 161.600, 0.494 336.500 M 529.195 211.056 C 515.291 213.829, 503.709 225.717, 501.001 239.994 C 499.526 247.774, 499.642 507.215, 501.124 514.201 C 503.943 527.484, 513.370 537.623, 526.899 541.920 C 531.676 543.437, 786.324 543.437, 791.101 541.920 C 804.961 537.518, 814.323 527.215, 816.958 513.467 C 818.744 504.145, 817.946 239.788, 816.117 234.925 C 812.539 225.416, 802.581 215.458, 793.075 211.884 C 790.159 210.788, 765.900 210.509, 661.500 210.369 C 591.100 210.274, 531.563 210.583, 529.195 211.056 M 530.220 250.750 L 530.500 263.500 656 263.500 L 781.500 263.500 781.780 250.750 L 782.060 238 656 238 L 529.940 238 530.220 250.750 M 517.233 394.750 L 517.500 508.500 519.721 512.653 C 522.601 518.038, 528.033 522.457, 533.856 524.150 C 537.641 525.250, 560.790 525.500, 659 525.500 C 793.962 525.500, 786.140 525.912, 793.651 518.402 C 801.409 510.644, 801 517.619, 801 392.925 C 801 292.894, 800.847 282.155, 799.418 281.607 C 798.548 281.273, 734.641 281, 657.402 281 L 516.967 281 517.233 394.750 M 587.500 325.931 C 551.870 326.465, 549.288 326.625, 546.106 328.500 C 537.662 333.476, 534.254 342.580, 535.354 357.225 C 536.213 368.669, 540.082 375.047, 548.232 378.452 C 551.372 379.765, 558.224 380, 593.272 380 L 634.607 380 639.691 377.467 C 642.862 375.886, 645.851 373.382, 647.637 370.807 C 650.317 366.944, 650.522 365.939, 650.842 355.117 C 651.039 348.422, 650.712 341.983, 650.065 339.822 C 647.658 331.789, 640.486 326.511, 630.990 325.783 C 627.970 325.552, 608.400 325.618, 587.500 325.931 M 677.272 327.637 C 669.059 331.686, 665.782 337.585, 665.189 349.386 C 664.392 365.248, 668.076 373.858, 677.491 378.135 C 681.163 379.803, 684.993 379.956, 723 379.956 C 761.287 379.956, 764.810 379.813, 768.500 378.104 C 777.862 373.770, 781 367.341, 781 352.500 C 781 337.736, 778.296 331.950, 769.500 327.890 C 765.810 326.187, 762.209 326.044, 723 326.045 C 686.158 326.045, 680.070 326.257, 677.272 327.637 M 557.656 345.133 C 554.617 346.899, 552.858 352.294, 554.131 355.945 C 556.170 361.794, 557.512 362, 593.500 362 C 629.488 362, 630.830 361.794, 632.869 355.945 C 634.177 352.194, 632.324 346.779, 629.150 345.080 C 626.380 343.598, 560.214 343.646, 557.656 345.133 M 686.495 346.414 C 685.168 347.742, 683.801 349.943, 683.459 351.306 C 682.635 354.590, 685.405 359.823, 688.613 361.043 C 690.031 361.582, 705.542 362, 724.142 362 L 757.154 362 760.077 359.077 C 764.683 354.470, 763.880 348.127, 758.316 345.163 C 756.780 344.345, 746.156 344, 722.520 344 L 688.909 344 686.495 346.414 M 550.144 394.166 C 543.753 395.624, 537.568 402.123, 536.113 408.910 C 534.687 415.558, 534.694 424.467, 536.130 431.201 C 537.556 437.884, 543.434 444.232, 549.779 445.940 C 552.728 446.734, 566.612 446.994, 595.262 446.792 C 635.944 446.504, 636.557 446.469, 640.749 444.230 C 643.086 442.982, 646.236 440.090, 647.749 437.803 C 650.413 433.778, 650.500 433.214, 650.500 420 C 650.500 406.786, 650.413 406.222, 647.749 402.197 C 646.236 399.910, 643.086 397.018, 640.749 395.770 C 636.546 393.525, 636.056 393.498, 595.500 393.336 C 571.288 393.240, 552.716 393.579, 550.144 394.166 M 680.395 394.137 C 673.961 395.584, 668.330 401.058, 666.382 407.757 C 664.329 414.821, 664.852 430.905, 667.289 435.602 C 669.334 439.544, 675.224 444.744, 678.768 445.736 C 680.271 446.156, 700.625 446.500, 724 446.500 L 766.500 446.500 770.736 444.074 C 773.066 442.739, 776.216 439.853, 777.736 437.659 C 780.423 433.782, 780.500 433.294, 780.500 420.085 C 780.500 407.324, 780.352 406.281, 778.053 402.884 C 774.880 398.196, 770.041 394.933, 764.739 393.907 C 758.950 392.787, 685.508 392.987, 680.395 394.137 M 555.500 415.182 C 552.251 419.043, 552.640 423.305, 556.555 426.750 C 559.100 428.990, 559.265 429, 593.421 429 C 626.285 429, 627.838 428.915, 630.288 426.988 C 634.796 423.442, 634.699 416.823, 630.087 413.282 C 628.911 412.379, 619.401 412.055, 593.339 412.032 L 558.178 412 555.500 415.182 M 687.229 412.669 C 685.538 413.350, 683 418.366, 683 421.027 C 683 422.197, 684.332 424.486, 685.960 426.114 L 688.920 429.074 724.049 428.787 L 759.179 428.500 761.089 426.139 C 763.810 422.777, 763.613 416.924, 760.686 414.174 C 758.397 412.024, 757.982 412.001, 723.436 412.079 C 704.221 412.122, 687.928 412.388, 687.229 412.669 M 550.395 461.112 C 544.189 462.546, 538.354 468.068, 536.521 474.242 C 534.851 479.864, 534.545 492.335, 535.930 498.301 C 537.306 504.230, 540.976 508.795, 546.594 511.568 L 551.688 514.082 594.759 513.791 L 637.831 513.500 642.165 510.487 C 649.220 505.583, 651 500.839, 651 486.945 C 651 472.687, 649.214 468.278, 641.503 463.500 L 636.661 460.500 595.580 460.331 C 572.542 460.237, 552.697 460.580, 550.395 461.112 M 678.871 461.565 C 673.135 463.331, 667.559 469.210, 665.949 475.188 C 665.289 477.641, 664.951 483.794, 665.162 489.508 C 665.638 502.356, 668.186 507.419, 676.182 511.403 L 681.393 514 723.446 513.978 C 770.222 513.954, 770.529 513.914, 776.265 507.097 C 780.281 502.325, 781.223 497.772, 780.842 484.973 C 780.538 474.770, 780.229 473.100, 778.053 469.884 C 774.912 465.243, 770.655 462.371, 765 461.078 C 762.314 460.464, 744.981 460.067, 722 460.094 C 691.607 460.130, 682.525 460.439, 678.871 461.565 M 560.500 478.850 C 557.281 479.896, 555.371 481.350, 554.146 483.684 C 552.375 487.059, 552.767 489.570, 555.589 492.923 L 558.178 496 592.655 496 C 614.389 496, 627.843 495.619, 629.055 494.970 C 630.114 494.404, 631.685 492.576, 632.547 490.909 C 633.823 488.441, 633.903 487.235, 632.974 484.421 C 630.907 478.159, 629.864 477.988, 594.300 478.100 C 576.810 478.155, 561.600 478.492, 560.500 478.850 M 687.277 479.951 C 682.147 483.113, 681.640 489.723, 686.201 493.972 C 688.301 495.929, 689.601 496, 723.234 496 L 758.091 496 760.545 493.545 C 763.996 490.095, 763.938 484.230, 760.421 480.924 L 757.841 478.500 724.171 478.232 C 692.069 477.977, 690.350 478.057, 687.277 479.951 M 272.215 595.773 L 263.929 603.500 264.002 613.500 L 264.075 623.500 272.287 630.718 L 280.500 637.936 292 638.009 L 303.500 638.082 307.750 641.927 C 311.609 645.418, 312 646.207, 312 650.500 C 312 654.793, 311.609 655.582, 307.750 659.073 C 303.504 662.914, 303.491 662.918, 294.639 662.959 L 285.778 663 280.889 658.907 C 276.257 655.029, 276 654.555, 276 649.907 L 276 645 269.500 645 L 263 645 263.034 653.750 L 263.067 662.500 270.784 669.233 L 278.500 675.965 294.368 675.983 L 310.235 676 318.118 668.894 L 326 661.788 326 650.500 L 326 639.212 318.118 632.106 L 310.235 625 298.686 625 L 287.137 625 282.632 621.250 C 278.648 617.933, 278.120 617.018, 278.064 613.328 C 278.007 609.633, 278.478 608.746, 282.180 605.578 C 286.295 602.056, 286.499 602, 295.247 602 C 303.804 602, 304.280 602.121, 308.049 605.250 C 311.589 608.189, 311.966 608.955, 311.982 613.250 L 312 618 319 618 L 326 618 325.994 610.250 L 325.987 602.500 317.744 595.271 L 309.500 588.042 295 588.044 L 280.500 588.046 272.215 595.773 M 362 606.896 L 362 625.793 358.500 628.866 C 356.575 630.556, 355 632.290, 355 632.719 C 355 633.149, 356.575 634.757, 358.500 636.293 L 362 639.085 362 657.543 L 362 676 369 676 L 376 676 376 657.500 L 376 639 390.823 639 L 405.646 639 412.314 631.250 L 418.982 623.500 418.991 613.649 L 419 603.798 412.250 595.973 L 405.500 588.149 383.750 588.074 L 362 588 362 606.896 M 453 606.957 L 453 625.915 449.500 628.707 C 447.575 630.243, 446 631.851, 446 632.281 C 446 632.710, 447.575 634.444, 449.500 636.134 L 453 639.207 453 657.604 L 453 676 480 676 L 507 676 507 669.500 L 507 663 487 663 L 467 663 467 651 L 467 639 482.500 639 L 498 639 498 632.500 L 498 626 482.500 626 L 467 626 467 614 L 467 602 487 602 L 507 602 507 595 L 507 588 480 588 L 453 588 453 606.957 M 537 606.804 L 537 625.608 533.494 629.006 L 529.988 632.404 533.494 635.994 L 537 639.584 537 657.792 L 537 676 543.986 676 L 550.972 676 551.236 645.130 L 551.500 614.260 568.864 645.130 L 586.229 676 593.114 676 L 600 676 600 657.551 L 600 639.102 603.500 636.432 C 605.425 634.964, 607 633.254, 607 632.631 C 607 632.009, 605.425 630.243, 603.500 628.707 L 600 625.915 600 606.957 L 600 588 593 588 L 586 588 585.987 618.250 L 585.973 648.500 568.764 618.250 L 551.554 588 544.277 588 L 537 588 537 606.804 M 637 606.896 L 637 625.793 633.375 628.976 L 629.749 632.159 633.375 635.872 L 637 639.584 637 657.792 L 637 676 660.590 676 L 684.180 676 692.090 668.858 L 700 661.715 699.988 632.108 L 699.976 602.500 691.760 595.250 L 683.545 588 660.273 588 L 637 588 637 606.896 M 716.006 588.250 C 716.009 588.388, 718.639 596.917, 721.849 607.206 L 727.687 625.911 724.343 629.152 C 722.505 630.934, 721 632.759, 721 633.207 C 721 633.655, 723.418 635.208, 726.374 636.658 L 731.749 639.293 737.572 657.684 L 743.395 676.075 751.360 675.787 L 759.325 675.500 766.395 645.290 C 770.284 628.675, 773.752 615.625, 774.103 616.290 C 774.453 616.956, 777.813 630.679, 781.568 646.787 L 788.395 676.074 796.401 675.787 L 804.407 675.500 810.024 657.606 L 815.641 639.712 821.446 636.776 L 827.251 633.841 823.539 630.040 L 819.828 626.239 825.414 608.191 C 828.486 598.264, 831 589.641, 831 589.029 C 831 588.283, 828.481 588.012, 823.368 588.208 L 815.736 588.500 806.154 621.787 C 800.239 642.336, 796.322 654.391, 795.919 653.287 C 795.560 652.304, 792.175 637.212, 788.396 619.750 L 781.527 588 773.846 588 L 766.164 588 764.074 597.250 C 762.925 602.337, 759.589 617.492, 756.661 630.928 C 753.733 644.363, 751.113 654.938, 750.838 654.428 C 750.564 653.917, 746.115 638.763, 740.953 620.750 L 731.566 588 723.783 588 C 719.502 588, 716.003 588.112, 716.006 588.250 M 857 606.804 L 857 625.608 853.494 629.006 L 849.988 632.404 853.494 635.994 L 857 639.584 857 657.792 L 857 676 864 676 L 871 676 871 657.604 L 871 639.207 874.625 636.024 L 878.251 632.841 874.625 629.128 L 871 625.416 871 606.708 L 871 588 864 588 L 857 588 857 606.804 M 915.290 595.301 L 907.079 602.500 907.040 613.048 L 907 623.596 915.250 630.797 L 923.500 637.998 934.682 637.999 L 945.863 638 950.368 641.750 C 954.486 645.178, 954.878 645.897, 954.936 650.123 C 954.995 654.351, 954.618 655.097, 950.522 658.873 L 946.045 663 937.163 663 L 928.282 663 923.641 658.915 C 919.303 655.097, 919 654.509, 919 649.915 L 919 645 912 645 L 905 645 905 653.369 L 905 661.737 913.250 668.864 L 921.500 675.990 937.340 675.995 L 953.180 676 961.090 668.858 L 969 661.715 969 650.449 L 969 639.182 960.966 632.091 L 952.932 625 941.216 624.959 L 929.500 624.918 925.250 621.073 C 921.630 617.798, 921 616.649, 921 613.317 C 921 610.107, 921.680 608.742, 924.792 605.703 L 928.584 602 938.042 602.027 C 947.445 602.054, 947.522 602.074, 951.250 605.541 C 954.508 608.570, 955 609.615, 955 613.513 L 955 618 962 618 L 969 618 968.962 610.250 L 968.924 602.500 960.539 595.250 L 952.154 588 937.827 588.051 L 923.500 588.103 915.290 595.301 M 1002 606.833 L 1002 625.665 997.829 629.017 L 993.658 632.369 997.829 635.962 L 1002 639.555 1002 657.777 L 1002 676 1028.500 676 L 1055 676 1055 669.500 L 1055 663 1035 663 L 1015 663 1015 651 L 1015 639 1030.500 639 L 1046 639 1046 632.500 L 1046 626 1030.500 626 L 1015 626 1015 614 L 1015 602 1035 602 L 1055 602 1055 595 L 1055 588 1028.500 588 L 1002 588 1002 606.833 M 376 614 L 376 626 386.922 626 L 397.844 626 401.916 621.250 C 407.128 615.169, 407.199 612.316, 402.288 606.440 L 398.576 602 387.288 602 L 376 602 376 614 M 651 632.500 L 651 663 664.250 662.959 L 677.500 662.918 681.750 659.073 L 686 655.228 686 632.192 L 686 609.156 681.820 605.578 L 677.640 602 664.320 602 L 651 602 651 632.500 M 0.445 821 C 0.445 838.325, 0.582 845.413, 0.748 836.750 C 0.915 828.087, 0.915 813.913, 0.748 805.250 C 0.582 796.587, 0.445 803.675, 0.445 821" stroke="none" fill="#ffffff" fill-rule="evenodd"/><path d="M 525.300 212.854 C 515.394 216.292, 508.266 222.840, 503.729 232.670 L 501.500 237.500 501.500 376.500 L 501.500 515.500 504.405 521.791 C 508.013 529.605, 515.731 536.940, 523.753 540.179 L 529.500 542.500 659 542.500 L 788.500 542.500 794.247 540.179 C 802.269 536.940, 809.987 529.605, 813.595 521.791 L 816.500 515.500 816.500 376.500 L 816.500 237.500 813.830 231.804 C 810.424 224.537, 803.463 217.576, 796.196 214.170 L 790.500 211.500 660.500 211.275 C 537.449 211.062, 530.222 211.146, 525.300 212.854 M 530.671 237.663 C 530.302 238.032, 530 244.110, 530 251.171 L 530 264.008 656.250 263.754 L 782.500 263.500 782.500 250.500 L 782.500 237.500 656.921 237.246 C 587.852 237.107, 531.039 237.294, 530.671 237.663 M 516.229 394.247 L 516.500 507.500 518.818 512.206 C 521.910 518.484, 526.783 522.568, 533.754 524.723 C 539.124 526.384, 547.330 526.500, 659 526.500 C 772.301 526.500, 778.811 526.404, 784.500 524.656 C 792.107 522.317, 798.004 516.547, 800.073 509.417 C 801.271 505.289, 801.500 486.600, 801.500 393 L 801.500 281.500 658.729 281.247 L 515.959 280.993 516.229 394.247 M 551.195 327.177 C 545.564 328.436, 538.620 335.005, 537.110 340.500 C 535.723 345.550, 535.683 360.319, 537.044 365.219 C 538.385 370.049, 542.259 374.581, 547.199 377.101 C 550.978 379.029, 552.936 379.112, 593.165 379.033 C 638.174 378.944, 638.710 378.889, 644.153 373.770 C 648.503 369.680, 650.207 365.232, 650.746 356.563 C 651.491 344.592, 649.785 337.849, 644.664 332.532 C 642.078 329.847, 638.985 327.793, 636.500 327.110 C 631.483 325.732, 557.397 325.790, 551.195 327.177 M 681.513 327.134 C 675.545 328.531, 671.253 331.927, 668.483 337.446 C 666.318 341.759, 666 343.717, 666 352.728 C 666 367.048, 668.589 372.676, 677.210 377.097 C 680.684 378.879, 683.605 379, 723.059 379 C 768.992 379, 768.657 379.038, 774.597 373.156 C 779.358 368.442, 780.380 364.613, 780.203 352.151 C 780.064 342.413, 779.719 340.219, 777.771 336.690 C 775.238 332.102, 770.564 328.529, 765.118 327.016 C 760.536 325.743, 687.011 325.847, 681.513 327.134 M 557.775 344.559 C 552.362 347.496, 551.161 355.252, 555.455 359.545 L 557.909 362 593.500 362 L 629.091 362 631.545 359.545 C 634.194 356.896, 634.860 351.476, 632.970 347.945 C 630.474 343.280, 628.189 342.997, 593.300 343.040 C 566.305 343.073, 560.018 343.342, 557.775 344.559 M 687.775 344.559 C 679.551 349.022, 682.020 360.788, 691.556 362.576 C 693.634 362.966, 709.522 363.052, 726.861 362.768 L 758.387 362.250 761.194 359.109 C 765.519 354.269, 764.563 347.945, 759.010 344.665 C 756.530 343.200, 752.242 343.005, 723.346 343.040 C 696.310 343.073, 690.018 343.342, 687.775 344.559 M 547.500 395.890 C 538.751 399.928, 536 405.757, 536 420.256 C 536 432.300, 537.880 437.299, 544.343 442.442 L 548.186 445.500 592.916 445.500 L 637.646 445.500 641.803 442.749 C 644.140 441.202, 646.932 438.137, 648.178 435.749 C 650.149 431.973, 650.375 430.168, 650.205 419.528 C 650.026 408.374, 649.825 407.252, 647.257 403.106 C 645.523 400.306, 642.865 397.792, 640.093 396.328 L 635.685 394 593.593 394.022 C 554.808 394.042, 551.186 394.189, 547.500 395.890 M 677.500 395.890 C 668.745 399.931, 665.991 405.768, 666.022 420.218 C 666.047 431.966, 667.639 436.835, 672.903 441.265 C 678.467 445.947, 680.641 446.134, 725.587 445.807 L 767.674 445.500 771.802 442.638 C 774.213 440.967, 776.810 437.958, 778.047 435.404 C 779.923 431.528, 780.126 429.625, 779.832 418.687 C 779.530 407.468, 779.272 406.008, 777 402.655 C 775.552 400.518, 772.419 397.921, 769.554 396.483 L 764.607 394 723.054 394.022 C 684.793 394.042, 681.183 394.190, 677.500 395.890 M 556.077 413.589 C 550.028 418.678, 552.988 427.977, 561.138 429.492 C 562.987 429.836, 579.052 429.979, 596.838 429.809 L 629.176 429.500 631.588 426.694 C 634.250 423.598, 634.820 417.651, 632.718 414.913 C 629.870 411.204, 627.804 411, 593.142 411 L 559.153 411 556.077 413.589 M 686.656 412.133 C 684.165 413.581, 682.066 418.896, 682.692 422.171 C 682.973 423.640, 684.318 425.890, 685.681 427.171 C 688.154 429.496, 688.214 429.501, 720.329 429.802 C 738.023 429.969, 754.013 429.826, 755.862 429.486 C 763.866 428.013, 766.703 419.549, 761.077 413.923 L 758.154 411 723.327 411.030 C 700.423 411.050, 687.869 411.428, 686.656 412.133 M 547.459 462.880 C 542.544 465.112, 538.444 469.785, 536.911 474.902 C 536.230 477.176, 535.931 483.111, 536.170 489.607 C 536.621 501.832, 538.193 505.537, 544.873 510.116 L 548.351 512.500 590.925 512.806 C 618.772 513.007, 634.750 512.748, 637.115 512.057 C 642.053 510.614, 645.637 507.596, 648.275 502.655 C 650.200 499.051, 650.495 496.964, 650.497 486.921 C 650.500 475.797, 650.382 475.152, 647.500 470.499 C 645.530 467.318, 642.987 464.856, 640.093 463.328 L 635.685 461 593.593 461.022 C 554.918 461.042, 551.172 461.193, 547.459 462.880 M 677.459 462.880 C 672.567 465.102, 668.446 469.781, 666.932 474.831 C 666.289 476.979, 665.958 483.274, 666.156 489.613 C 666.542 501.994, 667.982 505.393, 674.835 510.090 L 678.351 512.500 722.156 512.780 C 763.718 513.046, 766.154 512.962, 769.731 511.137 C 777.011 507.421, 779.514 502.646, 780.287 491 C 781.321 475.426, 778.393 467.920, 769.554 463.483 L 764.607 461 723.054 461.022 C 684.902 461.042, 681.169 461.194, 677.459 462.880 M 588.872 477.749 L 558.244 478.029 555.622 480.651 C 551.695 484.577, 551.904 490.900, 556.077 494.411 L 559.153 497 592.626 497 C 628.226 497, 630.471 496.725, 632.970 492.055 C 634.479 489.236, 634.226 483.768, 632.471 481.261 C 630.886 479, 624.993 476.840, 621.500 477.241 C 620.400 477.367, 605.717 477.596, 588.872 477.749 M 686.750 479.080 C 683.952 480.710, 681.793 485.783, 682.510 489.046 C 682.860 490.641, 684.518 493.100, 686.194 494.509 L 689.240 497.073 724.208 496.787 L 759.175 496.500 761.588 493.694 C 765.038 489.681, 764.838 484.684, 761.077 480.923 L 758.154 478 723.327 478.030 C 701.538 478.049, 687.845 478.442, 686.750 479.080 M 287.750 588.743 C 291.738 588.932, 298.262 588.932, 302.250 588.743 C 306.238 588.553, 302.975 588.397, 295 588.397 C 287.025 588.397, 283.762 588.553, 287.750 588.743 M 362.445 589.284 C 362.174 589.990, 362.086 598.652, 362.251 608.534 L 362.549 626.500 362.775 607.750 L 363 589 383.800 589 C 399.026 589, 404.976 589.335, 406.002 590.250 C 407.194 591.313, 407.206 591.239, 406.079 589.750 C 404.892 588.181, 402.588 588, 383.846 588 C 367.749 588, 362.824 588.295, 362.445 589.284 M 453.445 589.284 C 453.174 589.990, 453.086 598.652, 453.251 608.534 L 453.549 626.500 453.775 607.767 L 454 589.033 480.250 588.749 L 506.500 588.465 480.219 588.233 C 459.579 588.050, 453.831 588.276, 453.445 589.284 M 539.500 588.597 C 544.103 589.346, 551.777 589.444, 551.347 588.750 C 551.091 588.337, 547.871 588.061, 544.191 588.136 C 540.511 588.211, 538.400 588.419, 539.500 588.597 M 592.728 588.713 L 598.956 589.094 599.261 607.297 L 599.566 625.500 599.533 607 L 599.500 588.500 593 588.416 L 586.500 588.331 592.728 588.713 M 649.306 588.747 C 655.800 588.922, 666.150 588.921, 672.306 588.746 C 678.463 588.571, 673.150 588.428, 660.500 588.429 C 647.850 588.429, 642.813 588.573, 649.306 588.747 M 719 588.614 C 724.969 589.365, 731.775 589.440, 731.347 588.750 C 731.091 588.337, 727.646 588.067, 723.691 588.150 C 719.736 588.232, 717.625 588.441, 719 588.614 M 766.653 588.750 C 766.397 589.163, 768.508 589.371, 771.344 589.214 C 780.539 588.705, 781.658 588.303, 774.309 588.150 C 770.354 588.067, 766.909 588.337, 766.653 588.750 M 818.500 588.597 C 823.103 589.346, 830.777 589.444, 830.347 588.750 C 830.091 588.337, 826.871 588.061, 823.191 588.136 C 819.511 588.211, 817.400 588.419, 818.500 588.597 M 930.750 588.743 C 934.737 588.932, 941.263 588.932, 945.250 588.743 C 949.237 588.553, 945.975 588.397, 938 588.397 C 930.025 588.397, 926.763 588.553, 930.750 588.743 M 1015.750 588.747 C 1023.038 588.918, 1034.963 588.918, 1042.250 588.747 C 1049.537 588.577, 1043.575 588.437, 1029 588.437 C 1014.425 588.437, 1008.462 588.577, 1015.750 588.747 M 650.445 632 C 650.445 649.325, 650.582 656.413, 650.748 647.750 C 650.915 639.087, 650.915 624.913, 650.748 616.250 C 650.582 607.587, 650.445 614.675, 650.445 632 M 325.193 609.702 L 325 616.905 318.750 617.260 L 312.500 617.615 318.781 617.807 C 326.144 618.033, 326.249 617.898, 325.744 608.895 L 325.385 602.500 325.193 609.702 M 699.442 632 C 699.442 648.225, 699.580 654.862, 699.748 646.750 C 699.916 638.638, 699.916 625.362, 699.748 617.250 C 699.580 609.138, 699.442 615.775, 699.442 632 M 920.667 607.667 C 920.300 608.033, 920 610.439, 920 613.012 C 920 616.632, 920.509 618.121, 922.250 619.595 L 924.500 621.500 922.649 619.310 C 921.247 617.651, 920.884 615.894, 921.149 612.060 C 921.342 609.276, 921.462 606.999, 921.417 606.999 C 921.371 607, 921.033 607.300, 920.667 607.667 M 324.500 650.500 C 324.500 657.270, 324.837 662.600, 325.250 662.345 C 325.663 662.091, 326 656.760, 326 650.500 C 326 644.240, 325.663 638.909, 325.250 638.655 C 324.837 638.400, 324.500 643.730, 324.500 650.500 M 362.417 657.500 C 362.418 667.950, 362.566 672.089, 362.746 666.698 C 362.926 661.307, 362.925 652.757, 362.744 647.698 C 362.563 642.639, 362.416 647.050, 362.417 657.500 M 453.417 657.500 C 453.418 667.950, 453.566 672.089, 453.746 666.698 C 453.926 661.307, 453.925 652.757, 453.744 647.698 C 453.563 642.639, 453.416 647.050, 453.417 657.500 M 599.417 657.500 C 599.418 667.950, 599.566 672.089, 599.746 666.698 C 599.926 661.307, 599.925 652.757, 599.744 647.698 C 599.563 642.639, 599.416 647.050, 599.417 657.500 M 968.374 650.500 C 968.376 656.550, 968.541 658.896, 968.740 655.713 C 968.939 652.531, 968.937 647.581, 968.736 644.713 C 968.535 641.846, 968.372 644.450, 968.374 650.500" stroke="none" fill="#188991" fill-rule="evenodd"/><path d="M 8.324 2.522 C 3.035 5.692, -0.024 10.552, 0.079 15.618 C 0.160 19.617, 0.391 19.472, 1.427 14.768 C 2.175 11.375, 7.275 5.458, 11.398 3.199 C 14.308 1.605, 54.457 1.500, 659 1.500 C 1274.473 1.500, 1303.646 1.580, 1306.750 3.276 C 1309.296 4.667, 1310 4.756, 1310 3.686 C 1310 2.935, 1308.854 1.799, 1307.453 1.161 C 1305.528 0.284, 1146.978 0.002, 658.703 0.009 L 12.500 0.019 8.324 2.522 M 595.750 210.750 C 630.537 210.896, 687.462 210.896, 722.250 210.750 C 757.037 210.604, 728.575 210.485, 659 210.485 C 589.425 210.485, 560.962 210.604, 595.750 210.750 M 656.556 237.748 L 782.111 238.008 781.806 250.957 C 781.637 258.080, 781.852 263.553, 782.282 263.121 C 782.712 262.689, 782.937 256.748, 782.782 249.918 L 782.500 237.500 656.750 237.494 L 531 237.488 656.556 237.748 M 500.486 377 C 500.486 450.975, 500.605 481.237, 500.750 444.250 C 500.895 407.262, 500.895 346.737, 500.750 309.750 C 500.605 272.762, 500.486 303.025, 500.486 377 M 817.486 377 C 817.486 450.975, 817.605 481.237, 817.750 444.250 C 817.895 407.262, 817.895 346.737, 817.750 309.750 C 817.605 272.762, 817.486 303.025, 817.486 377 M 516.483 392.500 C 516.483 454.100, 516.603 479.153, 516.750 448.173 C 516.897 417.193, 516.897 366.793, 516.750 336.173 C 516.603 305.553, 516.483 330.900, 516.483 392.500 M 799.746 281.730 C 800.724 282.423, 801.047 306.290, 801.252 393.056 L 801.513 503.500 801.507 392.583 C 801.501 294.843, 801.322 281.618, 800 281.257 C 798.894 280.955, 798.827 281.080, 799.746 281.730 M 770.001 328.940 C 773.971 331.041, 776.050 333.175, 778.335 337.500 C 779.207 339.150, 779.938 340.004, 779.960 339.398 C 780.078 336.135, 770.854 326.914, 767.602 327.044 C 766.996 327.069, 768.075 327.922, 770.001 328.940 M 576.186 343.748 C 585.363 343.913, 600.663 343.913, 610.186 343.749 C 619.709 343.584, 612.200 343.449, 593.500 343.449 C 574.800 343.449, 567.009 343.583, 576.186 343.748 M 665.365 352.500 C 665.368 358, 665.536 360.122, 665.738 357.216 C 665.941 354.311, 665.939 349.811, 665.734 347.216 C 665.528 344.622, 665.363 347, 665.365 352.500 M 723.500 343.974 C 742.200 344.263, 758.175 344.871, 759 345.324 C 759.825 345.777, 759.626 345.440, 758.559 344.574 C 756.866 343.201, 752.325 343.029, 723.059 343.224 L 689.500 343.448 723.500 343.974 M 535.336 353 C 535.336 357.125, 535.513 358.813, 535.728 356.750 C 535.944 354.688, 535.944 351.313, 535.728 349.250 C 535.513 347.188, 535.336 348.875, 535.336 353 M 704.310 362.748 C 711.905 362.918, 724.055 362.918, 731.310 362.747 C 738.564 362.576, 732.350 362.437, 717.500 362.438 C 702.650 362.438, 696.714 362.578, 704.310 362.748 M 667.004 367.715 C 666.995 370.599, 676.611 379.115, 679.700 378.960 C 680.140 378.938, 679.150 378.207, 677.500 377.335 C 673.390 375.163, 671.045 373.037, 668.861 369.500 C 667.841 367.850, 667.006 367.047, 667.004 367.715 M 576.684 379.748 C 587.235 379.910, 604.785 379.911, 615.684 379.749 C 626.583 379.587, 617.950 379.455, 596.500 379.455 C 575.050 379.454, 566.133 379.587, 576.684 379.748 M 701.750 379.749 C 713.438 379.909, 732.563 379.909, 744.250 379.749 C 755.938 379.589, 746.375 379.458, 723 379.458 C 699.625 379.458, 690.063 379.589, 701.750 379.749 M 573.750 393.749 C 584.888 393.910, 603.113 393.910, 614.250 393.749 C 625.388 393.588, 616.275 393.456, 594 393.456 C 571.725 393.456, 562.613 393.588, 573.750 393.749 M 703.250 393.749 C 714.112 393.910, 731.888 393.910, 742.750 393.749 C 753.612 393.587, 744.725 393.455, 723 393.455 C 701.275 393.455, 692.388 393.587, 703.250 393.749 M 780.378 420 C 780.378 426.325, 780.541 428.913, 780.739 425.750 C 780.937 422.587, 780.937 417.413, 780.739 414.250 C 780.541 411.087, 780.378 413.675, 780.378 420 M 575.685 411.748 C 585.138 411.912, 600.888 411.913, 610.685 411.749 C 620.483 411.585, 612.750 411.451, 593.500 411.450 C 574.250 411.450, 566.233 411.584, 575.685 411.748 M 665.360 420 C 665.360 425.225, 665.529 427.363, 665.735 424.750 C 665.941 422.137, 665.941 417.863, 665.735 415.250 C 665.529 412.637, 665.360 414.775, 665.360 420 M 685.455 413.455 C 684.105 414.805, 683.018 416.492, 683.040 417.205 C 683.062 417.917, 683.751 417.262, 684.572 415.750 C 685.393 414.238, 686.162 412.902, 686.282 412.782 C 686.402 412.662, 702.700 412.313, 722.500 412.007 L 758.500 411.450 723.205 411.225 L 687.909 411 685.455 413.455 M 535.349 420 C 535.349 424.675, 535.522 426.587, 535.732 424.250 C 535.943 421.913, 535.943 418.087, 535.732 415.750 C 535.522 413.413, 535.349 415.325, 535.349 420 M 577.314 429.749 C 586.561 429.914, 601.411 429.913, 610.314 429.748 C 619.216 429.582, 611.650 429.447, 593.500 429.448 C 575.350 429.448, 568.066 429.583, 577.314 429.749 M 706.250 429.748 C 715.462 429.913, 730.538 429.913, 739.750 429.748 C 748.962 429.583, 741.425 429.448, 723 429.448 C 704.575 429.448, 697.038 429.583, 706.250 429.748 M 666.039 431.816 C 665.900 436.494, 675.464 446.058, 680.200 445.978 C 680.915 445.966, 679.700 445.125, 677.500 444.110 C 672.750 441.918, 669.662 438.765, 667.593 433.993 C 666.760 432.072, 666.061 431.092, 666.039 431.816 M 572.250 446.749 C 583.663 446.909, 602.338 446.909, 613.750 446.749 C 625.163 446.588, 615.825 446.457, 593 446.457 C 570.175 446.457, 560.837 446.588, 572.250 446.749 M 703.317 446.749 C 714.766 446.910, 733.216 446.909, 744.317 446.749 C 755.418 446.588, 746.050 446.456, 723.500 446.457 C 700.950 446.457, 691.868 446.589, 703.317 446.749 M 573.183 460.749 C 584.009 460.910, 602.009 460.910, 613.183 460.749 C 624.358 460.588, 615.500 460.456, 593.500 460.456 C 571.500 460.455, 562.358 460.587, 573.183 460.749 M 702.183 460.749 C 713.009 460.910, 731.009 460.910, 742.183 460.749 C 753.358 460.588, 744.500 460.456, 722.500 460.456 C 700.500 460.455, 691.358 460.587, 702.183 460.749 M 672.484 465.148 C 668.863 468.328, 665.982 472.810, 666.022 475.200 C 666.034 475.915, 666.875 474.700, 667.890 472.500 C 669.736 468.501, 672.736 465.249, 676.500 463.167 C 677.600 462.559, 677.953 462.047, 677.285 462.030 C 676.616 462.014, 674.456 463.417, 672.484 465.148 M 665.370 487 C 665.370 492.775, 665.535 495.137, 665.737 492.250 C 665.939 489.363, 665.939 484.637, 665.737 481.750 C 665.535 478.863, 665.370 481.225, 665.370 487 M 535.360 487 C 535.360 492.225, 535.529 494.363, 535.735 491.750 C 535.941 489.137, 535.941 484.863, 535.735 482.250 C 535.529 479.637, 535.360 481.775, 535.360 487 M 575.750 496.748 C 585.237 496.913, 600.763 496.913, 610.250 496.748 C 619.737 496.584, 611.975 496.450, 593 496.450 C 574.025 496.450, 566.263 496.584, 575.750 496.748 M 705.750 496.748 C 715.237 496.913, 730.763 496.913, 740.250 496.748 C 749.737 496.584, 741.975 496.450, 723 496.450 C 704.025 496.450, 696.263 496.584, 705.750 496.748 M 778.054 502.869 C 776.658 506.241, 773.797 509.073, 769.500 511.338 C 767.850 512.208, 766.867 512.938, 767.316 512.960 C 768.645 513.025, 772.331 510.904, 774.845 508.625 C 777.342 506.362, 780.440 501.107, 779.708 500.375 C 779.467 500.133, 778.722 501.256, 778.054 502.869 M 571.750 513.749 C 583.438 513.909, 602.563 513.909, 614.250 513.749 C 625.938 513.589, 616.375 513.458, 593 513.458 C 569.625 513.458, 560.063 513.589, 571.750 513.749 M 702.318 513.749 C 714.317 513.909, 733.667 513.909, 745.318 513.749 C 756.968 513.589, 747.150 513.458, 723.500 513.458 C 699.850 513.459, 690.318 513.590, 702.318 513.749 M 502.001 517.783 C 501.999 520.765, 507.163 528.878, 511.857 533.270 C 514.639 535.871, 517.207 538, 517.565 538 C 517.923 538, 515.850 535.873, 512.958 533.272 C 509.580 530.235, 506.681 526.392, 504.851 522.522 C 503.284 519.210, 502.001 517.077, 502.001 517.783 M 813.117 522.597 C 811.569 526.135, 808.826 529.786, 805.287 533.021 C 802.290 535.759, 800.119 538, 800.462 538 C 800.805 538, 803.361 535.871, 806.143 533.270 C 810.850 528.867, 816.507 519.926, 815.807 517.996 C 815.638 517.531, 814.428 519.601, 813.117 522.597 M 603.327 526.750 C 634.582 526.897, 685.432 526.897, 716.327 526.750 C 747.222 526.603, 721.650 526.483, 659.500 526.483 C 597.350 526.483, 572.072 526.603, 603.327 526.750 M 506 594.500 L 506 601 486 601 L 466 601 466.216 613.750 L 466.432 626.500 466.747 614.250 L 467.062 602 487.031 602 L 507 602 507 595 C 507 591.150, 506.775 588, 506.500 588 C 506.225 588, 506 590.925, 506 594.500 M 537.227 606.458 L 537 625.416 533.267 629.458 L 529.533 633.500 533.789 629.462 L 538.046 625.425 537.749 606.462 L 537.453 587.500 537.227 606.458 M 585.778 618.597 C 585.625 635.426, 585.831 649.714, 586.235 650.347 C 586.639 650.981, 586.976 637.212, 586.985 619.750 C 586.993 602.288, 586.788 588, 586.528 588 C 586.269 588, 585.931 601.769, 585.778 618.597 M 637.227 606.445 L 637 625.391 634.273 628.445 L 631.546 631.500 634.796 628.458 L 638.046 625.416 637.749 606.458 L 637.453 587.500 637.227 606.445 M 857.227 606.458 L 857 625.416 853.267 629.458 L 849.533 633.500 853.789 629.462 L 858.046 625.425 857.749 606.462 L 857.453 587.500 857.227 606.458 M 870.227 606.563 L 870 625.626 873.250 628.563 L 876.500 631.500 873.773 628.469 L 871.046 625.438 870.749 606.469 L 870.453 587.500 870.227 606.563 M 284.872 602.750 C 283.666 604.288, 283.688 604.353, 285.052 603.292 C 285.910 602.624, 290.605 601.933, 295.552 601.747 L 304.500 601.411 295.372 601.206 C 287.711 601.033, 286.024 601.281, 284.872 602.750 M 375.216 613.750 L 375.432 626.500 375.747 614.192 L 376.062 601.883 387.938 602.192 C 394.470 602.361, 399.605 602.163, 399.348 601.750 C 399.092 601.337, 393.509 601, 386.941 601 L 375 601 375.216 613.750 M 663.934 601.749 C 672.533 601.948, 677.932 602.500, 678.934 603.280 C 680.313 604.355, 680.336 604.292, 679.128 602.750 C 677.924 601.215, 676.078 601.027, 664.128 601.218 L 650.500 601.437 663.934 601.749 M 907.667 601.667 C 907.300 602.033, 907 607.139, 907 613.012 C 907 622.854, 907.176 623.839, 909.250 625.595 L 911.500 627.500 909.686 625.350 C 908.124 623.500, 907.915 621.656, 908.186 612.098 C 908.359 605.992, 908.462 600.997, 908.417 600.998 C 908.371 600.999, 908.033 601.300, 907.667 601.667 M 933.250 601.735 C 935.862 601.941, 940.138 601.941, 942.750 601.735 C 945.362 601.529, 943.225 601.360, 938 601.360 C 932.775 601.360, 930.638 601.529, 933.250 601.735 M 967.992 609.795 L 968.483 618.500 968.786 610.595 C 968.953 606.247, 968.732 602.330, 968.295 601.890 C 967.858 601.450, 967.721 605.008, 967.992 609.795 M 1024.750 601.746 C 1030.388 601.924, 1039.612 601.924, 1045.250 601.746 C 1050.888 601.568, 1046.275 601.422, 1035 601.422 C 1023.725 601.422, 1019.112 601.568, 1024.750 601.746 M 264.168 613.191 C 264.076 619.071, 264.337 624.092, 264.750 624.349 C 265.163 624.606, 265.378 621.370, 265.229 617.158 C 264.753 603.723, 264.341 602.183, 264.168 613.191 M 683.786 607.103 C 686.048 609.678, 686.069 609.954, 685.786 633.258 C 685.629 646.212, 685.837 656.602, 686.250 656.347 C 686.663 656.091, 687 645.412, 687 632.615 L 687 609.349 684.250 606.924 L 681.500 604.500 683.786 607.103 M 550 644 C 550 661.783, 550.213 676.120, 550.473 675.860 C 551.146 675.187, 551.226 612.893, 550.555 612.222 C 550.250 611.916, 550 626.217, 550 644 M 534.227 636.530 L 536.953 639.561 537.251 658.030 L 537.548 676.500 537.774 657.937 L 538 639.374 534.750 636.437 L 531.500 633.500 534.227 636.530 M 634.227 636.530 L 636.953 639.561 637.251 658.030 L 637.548 676.500 637.774 657.937 L 638 639.374 634.750 636.437 L 631.500 633.500 634.227 636.530 M 854.227 636.530 L 856.953 639.561 857.251 658.030 L 857.548 676.500 857.774 657.937 L 858 639.374 854.750 636.437 L 851.500 633.500 854.227 636.530 M 872.151 637.339 C 870.027 639.600, 869.964 640.297, 870.251 658.089 L 870.548 676.500 870.774 658.064 C 870.987 640.676, 871.123 639.497, 873.174 637.314 C 874.370 636.042, 875.124 635, 874.849 635 C 874.574 635, 873.360 636.053, 872.151 637.339 M 375.417 657.500 C 375.418 667.950, 375.566 672.089, 375.746 666.698 C 375.926 661.307, 375.925 652.757, 375.744 647.698 C 375.563 642.639, 375.416 647.050, 375.417 657.500 M 466.385 651 C 466.385 657.875, 466.545 660.688, 466.740 657.250 C 466.936 653.813, 466.936 648.188, 466.740 644.750 C 466.545 641.313, 466.385 644.125, 466.385 651 M 905 653.326 C 905 661.154, 905.164 661.796, 907.750 664.076 L 910.500 666.500 908.250 663.936 C 906.337 661.755, 906 660.228, 906 653.731 L 906 646.091 912.750 645.742 L 919.500 645.392 912.250 645.196 L 905 645 905 653.326 M 955.175 649.952 C 955.038 653.429, 954.292 655.182, 951.769 657.952 L 948.538 661.500 952.335 657.918 C 955.808 654.640, 956.098 653.959, 955.740 649.918 L 955.349 645.500 955.175 649.952 M 0.473 722 C 0.473 759.675, 0.597 775.087, 0.750 756.250 C 0.902 737.413, 0.902 706.587, 0.750 687.750 C 0.597 668.913, 0.473 684.325, 0.473 722 M 0.079 855.382 C -0.025 860.491, 3.081 865.377, 8.425 868.509 L 12.676 871 658.791 871 C 1146.982 871, 1305.528 870.716, 1307.453 869.839 C 1308.854 869.201, 1310 868.065, 1310 867.314 C 1310 866.244, 1309.296 866.333, 1306.750 867.724 C 1303.646 869.420, 1274.473 869.500, 659 869.500 C 54.457 869.500, 14.308 869.395, 11.398 867.801 C 7.275 865.542, 2.175 859.625, 1.427 856.232 C 0.391 851.528, 0.160 851.383, 0.079 855.382" stroke="none" fill="#fbfbfb" fill-rule="evenodd"/></svg>